Full Credits To:
#### ##       ##       ##     ##  ######  ####  #######  ##    ## 
 ##  ##       ##       ##     ## ##    ##  ##  ##     ## ###   ## 
 ##  ##       ##       ##     ## ##        ##  ##     ## ####  ## 
 ##  ##       ##       ##     ##  ######   ##  ##     ## ## ## ## 
 ##  ##       ##       ##     ##       ##  ##  ##     ## ##  #### 
 ##  ##       ##       ##     ## ##    ##  ##  ##     ## ##   ### 
#### ######## ########  #######   ######  ####  #######  ##    ## 


 Movie Info
 Plot: A comedy about a college student on suspension who is 
 coaxed into babysitting the kids next door, though he is 
 fully unprepared for the wild night ahead of him. 
 IMDB: http://www.imdb.com/title/tt1366344/
 IMDB Rating: 5.5
 Trailer:


 General Info
 Size: 1.39GB
 Format: AVI
 Runtime: 1:21:17



 Sources
 Video - The.Sitter.UNRATED.DVDR-Replica 
 Audio - The.Sitter.UNRATED.DVDR-Replica 
 (Thanks)



 Video Info
 ID : 0
 Format : MPEG-4 Visual
 Format profile : Advanced Simple@L5
 Format settings, BVOP : 2
 Format settings, QPel : No
 Format settings, GMC : No warppoints
 Format settings, Matrix : Default (H.263)
 Muxing mode : Packed bitstream
 Codec ID : XVID
 Codec ID/Hint : XviD
 Duration : 1h 21mn
 Bit rate : 1 994 Kbps
 Width : 720 pixels
 Height : 368 pixels
 Display aspect ratio : 1.957
 Frame rate : 23.976 fps
 Color space : YUV
 Chroma subsampling : 4:2:0
 Bit depth : 8 bits
 Scan type : Progressive
 Compression mode : Lossy
 Bits/(Pixel*Frame) : 0.314
 Stream size : 1.13 GiB (81%)
 Writing library : XviD 64


 Audio Info
 ID : 1
 Format : AC-3
 Format/Info : Audio Coding 3
 Mode extension : CM (complete main)
 Codec ID : 2000
 Duration : 1h 21mn
 Bit rate mode : Constant
 Bit rate : 448 Kbps
 Channel(s) : 6 channels
 Channel positions : Front: L C R, Side: L R, LFE
 Sampling rate : 48.0 KHz
 Bit depth : 16 bits
 Compression mode : Lossy
 Stream size : 260 MiB (18%)
 Alignment : Split accross interleaves
 Interleave, duration : 42 ms (1.00 video frame)
 Interleave, preload duration : 500 ms 


 Encoders Notes
 There was a problem with the iso thats why so many have "repeat scenes"
 To fix this i simply joined all of the vobs together :P
 I cropped, resized, sharpned, de-noised, increased gamma & contrast
 lowered saturation & tweaked the colors.
 Its in sync threw out, theres no repeat scenes.
 This runtime 81mn, imdb runtime 81mn.
 Theres a sample included, enjoy.


 I am looking for:
 Lot of things...
 illusion [at] hushai



Screenz:
 
http://imgr.us/images/b8xnu1788ruofmnwrzi6.jpg
 
http://imgr.us/images/79ij18hrvr9vy5euj5yd.jpg
 
http://imgr.us/images/e3rz5i4a4ja0p04nlpf0.jpg
 
http://imgr.us/images/mjst4t2n9kjtq5shvkih.jpg
 
http://imgr.us/images/7idsmrbya96kd3a95cv0.jpg
 
http://imgr.us/images/i1o1wi6n26xtk02sev17.jpg


Full Credits To:
#### ##       ##       ##     ##  ######  ####  #######  ##    ## 
 ##  ##       ##       ##     ## ##    ##  ##  ##     ## ###   ## 
 ##  ##       ##       ##     ## ##        ##  ##     ## ####  ## 
 ##  ##       ##       ##     ##  ######   ##  ##     ## ## ## ## 
 ##  ##       ##       ##     ##       ##  ##  ##     ## ##  #### 
 ##  ##       ##       ##     ## ##    ##  ##  ##     ## ##   ### 
#### ######## ########  #######   ######  ####  #######  ##    ## 